<?xml version="1.0" encoding="UTF-8" standalone="no"?>
<svg
   xmlns:dc="http://purl.org/dc/elements/1.1/"
   xmlns:cc="http://creativecommons.org/ns#"
   xmlns:rdf="http://www.w3.org/1999/02/22-rdf-syntax-ns#"
   xmlns:svg="http://www.w3.org/2000/svg"
   xmlns="http://www.w3.org/2000/svg"
   xmlns:sodipodi="http://sodipodi.sourceforge.net/DTD/sodipodi-0.dtd"
   xmlns:inkscape="http://www.inkscape.org/namespaces/inkscape"
   width="24in"
   height="36in"
   viewBox="0 0 2160 3240.0001"
   id="svg2"
   version="1.1"
   inkscape:version="1.0beta1 (32d4812, 2019-09-19)"
   sodipodi:docname="IEEEPosterAB.svg">
  <defs
     id="defs4">
    <rect
       x="1572.2478"
       y="-771.56056"
       width="187.67823"
       height="77.904169"
       id="rect144" />
  </defs>
  <sodipodi:namedview
     id="base"
     pagecolor="#ffffff"
     bordercolor="#666666"
     borderopacity="1.0"
     inkscape:pageopacity="0.0"
     inkscape:pageshadow="2"
     inkscape:zoom="0.26510009"
     inkscape:cx="791.89926"
     inkscape:cy="2087.6117"
     inkscape:document-units="in"
     inkscape:current-layer="layer1"
     showgrid="false"
     units="in"
     inkscape:window-width="1440"
     inkscape:window-height="855"
     inkscape:window-x="0"
     inkscape:window-y="23"
     inkscape:window-maximized="1"
     showguides="true"
     inkscape:guide-bbox="true"
     inkscape:document-rotation="0" />
  <metadata
     id="metadata7">
    <rdf:RDF>
      <cc:Work
         rdf:about="">
        <dc:format>image/svg+xml</dc:format>
        <dc:type
           rdf:resource="http://purl.org/dc/dcmitype/StillImage" />
        <dc:title></dc:title>
      </cc:Work>
    </rdf:RDF>
  </metadata>
  <g
     inkscape:label="Layer 1"
     inkscape:groupmode="layer"
     id="layer1"
     transform="translate(0,2188)">
    <flowRoot
       xml:space="preserve"
       id="flowRoot4136"
       style="font-style:normal;font-variant:normal;font-weight:normal;font-stretch:normal;font-size:40px;line-height:125%;font-family:Georgia;-inkscape-font-specification:Georgia;letter-spacing:0px;word-spacing:0px;fill:#000000;fill-opacity:1;stroke:none;stroke-width:1px;stroke-linecap:butt;stroke-linejoin:miter;stroke-opacity:1"
       transform="translate(29.652509,-2126.2239)"><flowRegion
         id="flowRegion4138"><rect
           id="rect4140"
           width="1791.506"
           height="593.05017"
           x="150.7336"
           y="524.32434"
           style="font-style:normal;font-variant:normal;font-weight:normal;font-stretch:normal;font-size:40px;font-family:Georgia;-inkscape-font-specification:Georgia" /></flowRegion><flowPara
         id="flowPara4142"
         style="text-anchor:start;text-align:justify">Humans are skillful. By building a bio-inspired manipulable snake-like controller that can be molded into a wide variety of shapes, we allow a human controller to telepresently specify complex shapes and shape changes. We constructed a tetrahelix consisting of seven tetrahedron made of adjustable-length members connected via 3D printed Song-Kwon-Kim joints which allow manual changes to the shape of the controller. These changes in length are digitized and organized via an Arduino and transmitted to more power computers where they may specify a shape to be animated or control a robot of similar shape, or simply specify relative positions in Cartesian space. Although this research is basic, we hope it will eventually amplify human control of in vivo mechanical devices such as endoscopes, search-and-rescue robots weaseling into tight spaces, or general purpose tetrobots used for planetary space exploration as suggested by Prof. Sanderson and his students 20 years ago.</flowPara></flowRoot>    <flowRoot
       xml:space="preserve"
       id="flowRoot4144"
       style="font-style:normal;font-variant:normal;font-weight:normal;font-stretch:normal;font-size:90px;line-height:126.99999809%;font-family:Georgia;-inkscape-font-specification:Georgia;text-align:center;letter-spacing:0px;word-spacing:0px;text-anchor:middle;fill:#000000;fill-opacity:1;stroke:none;stroke-width:1px;stroke-linecap:butt;stroke-linejoin:miter;stroke-opacity:1"
       transform="translate(38.8417,-2442.5174)"><flowRegion
         id="flowRegion4146"><rect
           id="rect4148"
           width="1882.9346"
           height="644.94208"
           x="101.31274"
           y="341.46719"
           style="font-style:normal;font-variant:normal;font-weight:normal;font-stretch:normal;font-size:90px;line-height:126.99999809%;font-family:Georgia;-inkscape-font-specification:Georgia;text-align:center;text-anchor:middle" /></flowRegion><flowPara
         id="flowPara4150">The Design and Construction of a Novel Variable-<flowSpan
   style="font-size:90px;text-align:center;text-anchor:middle"
   id="flowSpan4152">Geometry</flowSpan> Snake-like Input Device</flowPara></flowRoot>    <flowRoot
       xml:space="preserve"
       id="flowRoot4175"
       style="fill:black;stroke:none;stroke-opacity:1;stroke-width:1px;stroke-linejoin:miter;stroke-linecap:butt;fill-opacity:1;font-family:Georgia;font-style:normal;font-weight:normal;font-size:45px;line-height:125%;letter-spacing:0px;word-spacing:0px;-inkscape-font-specification:Georgia;font-stretch:normal;font-variant:normal;"><flowRegion
         id="flowRegion4177"><rect
           id="rect4179"
           width="1205.8688"
           height="254.51738"
           x="442.31659"
           y="427.95367"
           style="-inkscape-font-specification:Georgia;font-family:Georgia;font-weight:normal;font-style:normal;font-stretch:normal;font-variant:normal;font-size:45px;" /></flowRegion><flowPara
         id="flowPara4181" /></flowRoot>    <flowRoot
       xml:space="preserve"
       id="flowRoot4183"
       style="fill:black;stroke:none;stroke-opacity:1;stroke-width:1px;stroke-linejoin:miter;stroke-linecap:butt;fill-opacity:1;font-family:Georgia;font-style:normal;font-weight:normal;font-size:45px;line-height:125%;letter-spacing:0px;word-spacing:0px;-inkscape-font-specification:Georgia;font-stretch:normal;font-variant:normal;"><flowRegion
         id="flowRegion4185"><rect
           id="rect4187"
           width="1027.9536"
           height="298.99612"
           x="407.72202"
           y="450.19305"
           style="-inkscape-font-specification:Georgia;font-family:Georgia;font-weight:normal;font-style:normal;font-stretch:normal;font-variant:normal;font-size:45px;" /></flowRegion><flowPara
         id="flowPara4189" /></flowRoot>    <text
       xml:space="preserve"
       style="font-style:normal;font-variant:normal;font-weight:normal;font-stretch:normal;font-size:70px;line-height:125%;font-family:Georgia;-inkscape-font-specification:Georgia;letter-spacing:0px;word-spacing:0px;fill:#000000;fill-opacity:1;stroke:none;stroke-width:1px;stroke-linecap:butt;stroke-linejoin:miter;stroke-opacity:1"
       x="405.25098"
       y="-1767.4595"
       id="text4191"><tspan
         sodipodi:role="line"
         id="tspan4193"
         x="405.25098"
         y="-1767.4595">Avinash Baskaran and Robert L. Read, PhD</tspan></text>
    <flowRoot
       xml:space="preserve"
       id="flowRoot4195"
       style="fill:black;stroke:none;stroke-opacity:1;stroke-width:1px;stroke-linejoin:miter;stroke-linecap:butt;fill-opacity:1;font-family:Georgia;font-style:normal;font-weight:normal;font-size:25px;line-height:125%;letter-spacing:0px;word-spacing:0px;-inkscape-font-specification:Georgia;font-stretch:normal;font-variant:normal;"><flowRegion
         id="flowRegion4197"
         style="-inkscape-font-specification:Georgia;font-family:Georgia;font-weight:normal;font-style:normal;font-stretch:normal;font-variant:normal;"><rect
           id="rect4199"
           width="0"
           height="27.181467"
           x="-279.22781"
           y="425.48264"
           style="-inkscape-font-specification:Georgia;font-family:Georgia;font-weight:normal;font-style:normal;font-stretch:normal;font-variant:normal;" /></flowRegion><flowPara
         id="flowPara4201" /></flowRoot>    <text
       xml:space="preserve"
       style="font-style:normal;font-variant:normal;font-weight:bold;font-stretch:normal;font-size:70px;line-height:125%;font-family:Georgia;-inkscape-font-specification:'Georgia Bold';letter-spacing:0px;word-spacing:0px;fill:#000000;fill-opacity:1;stroke:none;stroke-width:1px;stroke-linecap:butt;stroke-linejoin:miter;stroke-opacity:1"
       x="926.75677"
       y="-1658.7335"
       id="text4203"><tspan
         sodipodi:role="line"
         id="tspan4205"
         x="926.75677"
         y="-1658.7335">Abstract</tspan></text>
    <text
       xml:space="preserve"
       id="text142"
       style="font-style:normal;font-weight:normal;font-size:37.5px;line-height:1.25;font-family:sans-serif;shape-inside:url(#rect144);fill:#000000;fill-opacity:1;stroke:none" />
    <text
       xml:space="preserve"
       style="font-style:normal;font-weight:normal;font-size:37.5px;line-height:1.25;font-family:sans-serif;inline-size:690.355;fill:#000000;fill-opacity:1;stroke:none;stroke-width:0.9375"
       x="1428.0529"
       y="279.8721"
       id="text181"><tspan
         x="1428.0529"
         y="279.8721"
         sodipodi:role="line"><tspan
           style="font-style:normal;font-variant:normal;font-weight:normal;font-stretch:normal;font-family:Georgia;-inkscape-font-specification:Georgia;text-align:center;text-anchor:middle">SOFTWARE ARCHITECTURE:</tspan><tspan
           dx="11.71875" /></tspan><tspan
         x="1428.0529"
         y="327.12624"
         sodipodi:role="line"><tspan /></tspan><tspan
         x="1428.0529"
         y="374.00124"
         sodipodi:role="line"><tspan
           style="font-style:normal;font-variant:normal;font-weight:normal;font-stretch:normal;font-family:Georgia;-inkscape-font-specification:Georgia;text-align:center;text-anchor:middle">Groupings of 6 sliding </tspan><tspan
           dx="9.0820312"
           style="font-style:normal;font-variant:normal;font-weight:normal;font-stretch:normal;font-family:Georgia;-inkscape-font-specification:Georgia;text-align:center;text-anchor:middle" /></tspan><tspan
         x="1428.0529"
         y="421.25536"
         sodipodi:role="line"><tspan
           style="font-style:normal;font-variant:normal;font-weight:normal;font-stretch:normal;font-family:Georgia;-inkscape-font-specification:Georgia;text-align:center;text-anchor:middle">potentiometers, associated with </tspan><tspan
           dx="9.0820312"
           style="font-style:normal;font-variant:normal;font-weight:normal;font-stretch:normal;font-family:Georgia;-inkscape-font-specification:Georgia;text-align:center;text-anchor:middle" /></tspan><tspan
         x="1428.0529"
         y="468.50948"
         sodipodi:role="line"><tspan
           style="font-style:normal;font-variant:normal;font-weight:normal;font-stretch:normal;font-family:Georgia;-inkscape-font-specification:Georgia;text-align:center;text-anchor:middle">individual tetrahedron in the larger  </tspan><tspan
           dx="9.0820312"
           style="font-style:normal;font-variant:normal;font-weight:normal;font-stretch:normal;font-family:Georgia;-inkscape-font-specification:Georgia;text-align:center;text-anchor:middle" /></tspan><tspan
         x="1428.0529"
         y="515.7636"
         sodipodi:role="line"><tspan
           style="font-style:normal;font-variant:normal;font-weight:normal;font-stretch:normal;font-family:Georgia;-inkscape-font-specification:Georgia;text-align:center;text-anchor:middle">structure, were wired to on-board, </tspan><tspan
           dx="9.0820312"
           style="font-style:normal;font-variant:normal;font-weight:normal;font-stretch:normal;font-family:Georgia;-inkscape-font-specification:Georgia;text-align:center;text-anchor:middle" /></tspan><tspan
         x="1428.0529"
         y="563.01775"
         sodipodi:role="line"><tspan
           style="font-style:normal;font-variant:normal;font-weight:normal;font-stretch:normal;font-family:Georgia;-inkscape-font-specification:Georgia;text-align:center;text-anchor:middle">mounted multiplexers via soldered </tspan><tspan
           dx="9.0820312"
           style="font-style:normal;font-variant:normal;font-weight:normal;font-stretch:normal;font-family:Georgia;-inkscape-font-specification:Georgia;text-align:center;text-anchor:middle" /></tspan><tspan
         x="1428.0529"
         y="610.2719"
         sodipodi:role="line"><tspan
           style="font-style:normal;font-variant:normal;font-weight:normal;font-stretch:normal;font-family:Georgia;-inkscape-font-specification:Georgia;text-align:center;text-anchor:middle">electrical joints. Male header pins at </tspan><tspan
           dx="9.0820312"
           style="font-style:normal;font-variant:normal;font-weight:normal;font-stretch:normal;font-family:Georgia;-inkscape-font-specification:Georgia;text-align:center;text-anchor:middle" /></tspan><tspan
         x="1428.0529"
         y="657.52605"
         sodipodi:role="line"><tspan
           style="font-style:normal;font-variant:normal;font-weight:normal;font-stretch:normal;font-family:Georgia;-inkscape-font-specification:Georgia;text-align:center;text-anchor:middle">the terminating ends of each wire </tspan><tspan
           dx="9.0820312"
           style="font-style:normal;font-variant:normal;font-weight:normal;font-stretch:normal;font-family:Georgia;-inkscape-font-specification:Georgia;text-align:center;text-anchor:middle" /></tspan><tspan
         x="1428.0529"
         y="704.7802"
         sodipodi:role="line"><tspan
           style="font-style:normal;font-variant:normal;font-weight:normal;font-stretch:normal;font-family:Georgia;-inkscape-font-specification:Georgia;text-align:center;text-anchor:middle">allow for ease of removal. the analog </tspan></tspan><tspan
         x="1428.0529"
         y="752.03435"
         sodipodi:role="line"><tspan
           style="font-style:normal;font-variant:normal;font-weight:normal;font-stretch:normal;font-family:Georgia;-inkscape-font-specification:Georgia;text-align:center;text-anchor:middle">output of each multiplexer board fed to </tspan></tspan><tspan
         x="1428.0529"
         y="799.2885"
         sodipodi:role="line"><tspan
           style="font-style:normal;font-variant:normal;font-weight:normal;font-stretch:normal;font-family:Georgia;-inkscape-font-specification:Georgia;text-align:center;text-anchor:middle">an Arduino Uno, which collected the data </tspan></tspan><tspan
         x="1428.0529"
         y="846.54265"
         sodipodi:role="line"><tspan
           style="font-style:normal;font-variant:normal;font-weight:normal;font-stretch:normal;font-family:Georgia;-inkscape-font-specification:Georgia;text-align:center;text-anchor:middle">streamed it via serial port. A webserver is </tspan></tspan><tspan
         x="1428.0529"
         y="893.7968"
         sodipodi:role="line"><tspan
           style="font-style:normal;font-variant:normal;font-weight:normal;font-stretch:normal;font-family:Georgia;-inkscape-font-specification:Georgia;text-align:center;text-anchor:middle">used  to store and release potentiometer </tspan></tspan><tspan
         x="1428.0529"
         y="941.05095"
         sodipodi:role="line"><tspan
           style="font-style:normal;font-variant:normal;font-weight:normal;font-stretch:normal;font-family:Georgia;-inkscape-font-specification:Georgia;text-align:center;text-anchor:middle">values to a controlled robot.</tspan></tspan></text>
    <text
       xml:space="preserve"
       style="font-style:normal;font-weight:normal;font-size:37.5px;line-height:1.25;font-family:sans-serif;inline-size:557.451;fill:#000000;fill-opacity:1;stroke:none;stroke-width:0.9375"
       x="1491.6483"
       y="68.78434"
       id="text185" />
    <circle
       id="path365"
       style="fill:#000000;stroke:#000000"
       cx="-364.12503"
       cy="-1440.1733"
       r="1.9557039" />
    <text
       id="text240"
       y="-984.90283"
       x="1429.5354"
       style="font-style:normal;font-weight:normal;font-size:37.5px;line-height:1.25;font-family:sans-serif;inline-size:635.45;fill:#000000;fill-opacity:1;stroke:none;stroke-width:0.9375"
       xml:space="preserve"><tspan
         x="1429.5354"
         y="-984.90283"
         sodipodi:role="line"><tspan
           style="font-style:normal;font-variant:normal;font-weight:normal;font-stretch:normal;font-family:Georgia;-inkscape-font-specification:Georgia;text-align:center;text-anchor:middle;stroke-width:0.9375">OVERALL DESIGN:</tspan><tspan
           dx="11.71875" /></tspan><tspan
         x="1429.5354"
         y="-937.6487"
         sodipodi:role="line"><tspan /></tspan><tspan
         x="1429.5354"
         y="-890.7737"
         sodipodi:role="line"><tspan
           style="font-style:normal;font-variant:normal;font-weight:normal;font-stretch:normal;font-family:Georgia;-inkscape-font-specification:Georgia;text-align:center;text-anchor:middle;stroke-width:0.9375">The device structure resembles that of </tspan><tspan
           dx="9.0820312" /></tspan><tspan
         x="1429.5354"
         y="-843.51955"
         sodipodi:role="line"><tspan
           style="font-style:normal;font-variant:normal;font-weight:normal;font-stretch:normal;font-family:Georgia;-inkscape-font-specification:Georgia;text-align:center;text-anchor:middle;stroke-width:0.9375">a </tspan><tspan
           style="font-style:normal;font-variant:normal;font-weight:normal;font-stretch:normal;font-family:Georgia;-inkscape-font-specification:Georgia;text-align:center;text-anchor:middle;stroke-width:0.9375">Boerdijk-Coxeter (BC) helix, which, </tspan><tspan
           dx="9.0820312" /></tspan><tspan
         x="1429.5354"
         y="-796.2654"
         sodipodi:role="line"><tspan
           style="font-style:normal;font-variant:normal;font-weight:normal;font-stretch:normal;font-family:Georgia;-inkscape-font-specification:Georgia;text-align:center;text-anchor:middle;stroke-width:0.9375">by virtue of its inherently chiral </tspan><tspan
           dx="9.0820312" /></tspan><tspan
         x="1429.5354"
         y="-749.01125"
         sodipodi:role="line"><tspan
           style="font-style:normal;font-variant:normal;font-weight:normal;font-stretch:normal;font-family:Georgia;-inkscape-font-specification:Georgia;text-align:center;text-anchor:middle;stroke-width:0.9375">nature, imparts a more cylindrical </tspan><tspan
           dx="9.0820312" /></tspan><tspan
         x="1429.5354"
         y="-701.7571"
         sodipodi:role="line"><tspan
           style="font-style:normal;font-variant:normal;font-weight:normal;font-stretch:normal;font-family:Georgia;-inkscape-font-specification:Georgia;text-align:center;text-anchor:middle;stroke-width:0.9375">presence to the device structure, than </tspan><tspan
           dx="9.0820312" /></tspan><tspan
         x="1429.5354"
         y="-654.50295"
         sodipodi:role="line"><tspan
           style="font-style:normal;font-variant:normal;font-weight:normal;font-stretch:normal;font-family:Georgia;-inkscape-font-specification:Georgia;text-align:center;text-anchor:middle;stroke-width:0.9375">that of other arrangements[see figure </tspan><tspan
           dx="9.0820312" /></tspan><tspan
         x="1429.5354"
         y="-607.24879"
         sodipodi:role="line"><tspan
           style="font-style:normal;font-variant:normal;font-weight:normal;font-stretch:normal;font-family:Georgia;-inkscape-font-specification:Georgia;text-align:center;text-anchor:middle;stroke-width:0.9375">2]. We leverage this property to mimic </tspan><tspan
           dx="9.0820312" /></tspan><tspan
         x="1429.5354"
         y="-559.99464"
         sodipodi:role="line"><tspan
           style="font-style:normal;font-variant:normal;font-weight:normal;font-stretch:normal;font-family:Georgia;-inkscape-font-specification:Georgia;text-align:center;text-anchor:middle;stroke-width:0.9375">the flexibility of naturally occurring </tspan><tspan
           dx="9.0820312" /></tspan><tspan
         x="1429.5354"
         y="-512.74049"
         sodipodi:role="line"><tspan
           style="font-style:normal;font-variant:normal;font-weight:normal;font-stretch:normal;font-family:Georgia;-inkscape-font-specification:Georgia;text-align:center;text-anchor:middle;stroke-width:0.9375">systems through an otherwise rigid </tspan><tspan
           dx="9.0820312" /></tspan><tspan
         x="1429.5354"
         y="-465.48637"
         sodipodi:role="line"><tspan
           style="font-style:normal;font-variant:normal;font-weight:normal;font-stretch:normal;font-family:Georgia;-inkscape-font-specification:Georgia;text-align:center;text-anchor:middle;stroke-width:0.9375">mechanical input controller.</tspan><tspan
           dx="10.107422" /></tspan><tspan
         x="1429.5354"
         y="-418.23225"
         sodipodi:role="line"><tspan /></tspan><tspan
         x="1429.5354"
         y="-371.35725"
         sodipodi:role="line"><tspan /></tspan><tspan
         x="1429.5354"
         y="-324.48225"
         sodipodi:role="line"><tspan /></tspan><tspan
         x="1429.5354"
         y="-277.60725"
         sodipodi:role="line"><tspan
           style="font-style:normal;font-variant:normal;font-weight:normal;font-stretch:normal;font-family:Georgia;-inkscape-font-specification:Georgia;text-align:center;text-anchor:middle;stroke-width:0.9375">.</tspan></tspan></text>
    <text
       id="text438"
       y="-101.59121"
       x="492.27289"
       style="font-style:normal;font-weight:normal;font-size:37.5px;line-height:1.25;font-family:sans-serif;fill:#000000;fill-opacity:1;stroke:none;stroke-width:0.9375"
       xml:space="preserve"><tspan
         style="stroke-width:0.9375"
         y="-101.59121"
         x="492.27289"
         id="tspan436"
         sodipodi:role="line" /></text>
    <text
       id="text442"
       y="-261.03284"
       x="80.412621"
       style="font-style:normal;font-weight:normal;font-size:37.5px;line-height:1.25;font-family:sans-serif;inline-size:637.732;fill:#000000;fill-opacity:1;stroke:none;stroke-width:0.9375"
       xml:space="preserve"><tspan
         x="80.412621"
         y="-261.03284"
         sodipodi:role="line"><tspan
           style="font-style:normal;font-variant:normal;font-weight:normal;font-stretch:normal;font-family:Georgia;-inkscape-font-specification:Georgia;text-align:center;text-anchor:middle;stroke-width:0.9375">FABRICATION:</tspan><tspan
           dx="11.71875" /></tspan><tspan
         x="80.412621"
         y="-213.7787"
         sodipodi:role="line"><tspan /></tspan><tspan
         x="80.412621"
         y="-166.9037"
         sodipodi:role="line"><tspan
           style="font-style:normal;font-variant:normal;font-weight:normal;font-stretch:normal;font-family:Georgia;-inkscape-font-specification:Georgia;text-align:center;text-anchor:middle;stroke-width:0.9375">Resisitance-based linear </tspan><tspan
           dx="9.0820312" /></tspan><tspan
         x="80.412621"
         y="-119.64958"
         sodipodi:role="line"><tspan
           style="font-style:normal;font-variant:normal;font-weight:normal;font-stretch:normal;font-family:Georgia;-inkscape-font-specification:Georgia;text-align:center;text-anchor:middle;stroke-width:0.9375">potentiometers </tspan><tspan
           style="font-style:normal;font-variant:normal;font-weight:normal;font-stretch:normal;font-family:Georgia;-inkscape-font-specification:Georgia;text-align:center;text-anchor:middle;stroke-width:0.9375">were embedded in 3D </tspan><tspan
           dx="9.0820312" /></tspan><tspan
         x="80.412621"
         y="-72.395455"
         sodipodi:role="line"><tspan
           style="font-style:normal;font-variant:normal;font-weight:normal;font-stretch:normal;font-family:Georgia;-inkscape-font-specification:Georgia;text-align:center;text-anchor:middle;stroke-width:0.9375">printed 2-part sliding sensor </tspan><tspan
           style="font-style:normal;font-variant:normal;font-weight:normal;font-stretch:normal;font-family:Georgia;-inkscape-font-specification:Georgia;text-align:center;text-anchor:middle;stroke-width:0.9375">sleeves, </tspan><tspan
           dx="9.0820312" /></tspan><tspan
         x="80.412621"
         y="-25.141327"
         sodipodi:role="line"><tspan
           style="font-style:normal;font-variant:normal;font-weight:normal;font-stretch:normal;font-family:Georgia;-inkscape-font-specification:Georgia;text-align:center;text-anchor:middle;stroke-width:0.9375">which terminated at </tspan><tspan
           style="font-style:normal;font-variant:normal;font-weight:normal;font-stretch:normal;font-family:Georgia;-inkscape-font-specification:Georgia;text-align:center;text-anchor:middle;stroke-width:0.9375">novel spherical </tspan><tspan
           dx="9.0820312" /></tspan><tspan
         x="80.412621"
         y="22.1128"
         sodipodi:role="line"><tspan
           style="font-style:normal;font-variant:normal;font-weight:normal;font-stretch:normal;font-family:Georgia;-inkscape-font-specification:Georgia;text-align:center;text-anchor:middle;stroke-width:0.9375">joints designed by Song, Kwon and </tspan><tspan
           dx="9.0820312" /></tspan><tspan
         x="80.412621"
         y="69.366928"
         sodipodi:role="line"><tspan
           style="font-style:normal;font-variant:normal;font-weight:normal;font-stretch:normal;font-family:Georgia;-inkscape-font-specification:Georgia;text-align:center;text-anchor:middle;stroke-width:0.9375">Kim[cite SKK joint], and re-modeled </tspan><tspan
           dx="9.0820312" /></tspan><tspan
         x="80.412621"
         y="116.62106"
         sodipodi:role="line"><tspan
           style="font-style:normal;font-variant:normal;font-weight:normal;font-stretch:normal;font-family:Georgia;-inkscape-font-specification:Georgia;text-align:center;text-anchor:middle;stroke-width:0.9375">by our group to produce a </tspan><tspan
           style="font-style:normal;font-variant:normal;font-weight:normal;font-stretch:normal;font-family:Georgia;-inkscape-font-specification:Georgia;text-align:center;text-anchor:middle;stroke-width:0.9375">fully </tspan><tspan
           dx="9.0820312" /></tspan><tspan
         x="80.412621"
         y="163.87518"
         sodipodi:role="line"><tspan
           style="font-style:normal;font-variant:normal;font-weight:normal;font-stretch:normal;font-family:Georgia;-inkscape-font-specification:Georgia;text-align:center;text-anchor:middle;stroke-width:0.9375">modular mechanical system.</tspan></tspan></text>
    <text
       xml:space="preserve"
       style="font-style:normal;font-weight:normal;font-size:37.5px;line-height:1.25;font-family:sans-serif;fill:#000000;fill-opacity:1;stroke:none;stroke-width:0.9375"
       x="823.45782"
       y="-158.08086"
       id="text249"><tspan
         sodipodi:role="line"
         id="tspan247"
         x="823.45782"
         y="-158.08086"
         style="stroke-width:0.9375">`</tspan></text>
    <g
       transform="translate(0,-63.75)"
       aria-label="INSERT IMAGE OF TETROCON"
       id="text308"
       style="font-style:normal;font-weight:normal;font-size:37.5px;line-height:1.25;font-family:sans-serif;fill:#000000;fill-opacity:1;stroke:none;stroke-width:0.9375">
      <path
         inkscape:connector-curvature="0"
         d="m 309.92578,-674.47626 h -10.7666 v -2.7832 h 3.57056 v -21.698 h -3.57056 v -2.7832 h 10.7666 v 2.7832 h -3.57056 v 21.698 h 3.57056 z"
         style="stroke-width:0.9375"
         id="path310" />
      <path
         inkscape:connector-curvature="0"
         d="m 336.93384,-674.47626 h -4.48609 l -12.92724,-24.38965 v 24.38965 h -3.38745 v -27.2644 h 5.62133 l 11.792,22.26562 v -22.26562 h 3.38745 z"
         style="stroke-width:0.9375"
         id="path312" />
      <path
         inkscape:connector-curvature="0"
         d="m 363.99683,-682.25824 q 0,1.59302 -0.75074,3.14941 -0.73242,1.5564 -2.06909,2.63672 -1.46484,1.17188 -3.42407,1.83106 -1.94092,0.65918 -4.6875,0.65918 -2.948,0 -5.31006,-0.54932 -2.34375,-0.54932 -4.77905,-1.62964 v -4.54101 h 0.25635 q 2.06909,1.72119 4.77905,2.65503 2.70996,0.93383 5.09033,0.93383 3.36914,0 5.23682,-1.26342 1.88598,-1.26343 1.88598,-3.36914 0,-1.81275 -0.89721,-2.67334 -0.87891,-0.8606 -2.69165,-1.33667 -1.37329,-0.36622 -2.98462,-0.60425 -1.59302,-0.23804 -3.38745,-0.60425 -3.62549,-0.76904 -5.3833,-2.61841 -1.73951,-1.86767 -1.73951,-4.85229 0,-3.42408 2.89307,-5.60303 2.89307,-2.19727 7.34253,-2.19727 2.87475,0 5.27344,0.54932 2.39868,0.54932 4.24804,1.35498 v 4.28467 h -0.25634 q -1.5564,-1.31836 -4.10157,-2.17896 -2.52685,-0.8789 -5.18188,-0.8789 -2.91138,0 -4.6875,1.20849 -1.75781,1.2085 -1.75781,3.1128 0,1.70288 0.8789,2.67334 0.87891,0.97046 3.09448,1.48315 1.17188,0.25635 3.33252,0.62256 2.16065,0.36621 3.66211,0.75073 3.03955,0.80567 4.57764,2.4353 1.53809,1.62964 1.53809,4.55933 z"
         style="stroke-width:0.9375"
         id="path314" />
      <path
         inkscape:connector-curvature="0"
         d="m 387.78223,-674.47626 h -17.96265 v -27.2644 h 17.96265 v 3.22265 h -14.33716 v 7.47071 h 14.33716 v 3.22265 h -14.33716 v 10.12574 h 14.33716 z"
         style="stroke-width:0.9375"
         id="path316" />
      <path
         inkscape:connector-curvature="0"
         d="m 416.10864,-674.47626 h -4.70581 l -9.11865,-10.83984 h -5.10864 v 10.83984 h -3.62549 v -27.2644 h 7.6355 q 2.47192,0 4.11987,0.32959 1.64795,0.31128 2.96631,1.13525 1.48315,0.93384 2.30713,2.36206 0.84228,1.40991 0.84228,3.58887 0,2.948 -1.48315,4.94385 -1.48316,1.97754 -4.08325,2.98462 z m -8.47778,-19.59228 q 0,-1.17188 -0.42114,-2.06909 -0.40284,-0.91553 -1.35498,-1.53809 -0.78736,-0.53101 -1.86768,-0.73242 -1.08032,-0.21973 -2.54517,-0.21973 h -4.26635 v 10.29053 h 3.66211 q 1.72119,0 3.00293,-0.29297 1.28173,-0.31128 2.17895,-1.13525 0.82398,-0.76905 1.2085,-1.75782 0.40283,-1.00708 0.40283,-2.54516 z"
         style="stroke-width:0.9375"
         id="path318" />
      <path
         inkscape:connector-curvature="0"
         d="m 439.07007,-698.51801 h -9.74121 v 24.04175 h -3.62549 v -24.04175 h -9.74121 v -3.22265 h 23.10791 z"
         style="stroke-width:0.9375"
         id="path320" />
      <path
         inkscape:connector-curvature="0"
         d="m 465.56543,-674.47626 h -10.7666 v -2.7832 h 3.57055 v -21.698 h -3.57055 v -2.7832 h 10.7666 v 2.7832 h -3.57056 v 21.698 h 3.57056 z"
         style="stroke-width:0.9375"
         id="path322" />
      <path
         inkscape:connector-curvature="0"
         d="M 496.05249,-674.47626 H 492.427 v -23.49243 l -7.58056,15.98511 h -2.16065 l -7.52563,-15.98511 v 23.49243 h -3.38745 v -27.2644 h 4.94384 l 7.26929,15.17944 7.03125,-15.17944 h 5.0354 z"
         style="stroke-width:0.9375"
         id="path324" />
      <path
         inkscape:connector-curvature="0"
         d="m 524.90991,-674.47626 h -3.86352 l -2.67334,-7.59887 h -11.792 l -2.67334,7.59887 h -3.68042 l 9.92432,-27.2644 h 4.83399 z m -7.65381,-10.71167 -4.77905,-13.38501 -4.79736,13.38501 z"
         style="stroke-width:0.9375"
         id="path326" />
      <path
         inkscape:connector-curvature="0"
         d="m 551.78979,-676.49042 q -2.23388,1.02539 -4.88891,1.79444 -2.63672,0.75073 -5.10864,0.75073 -3.18604,0 -5.84107,-0.87891 -2.65503,-0.8789 -4.5227,-2.63672 -1.88599,-1.77612 -2.91138,-4.43115 -1.02539,-2.67334 -1.02539,-6.2439 0,-6.53686 3.80859,-10.30883 3.82691,-3.79029 10.49195,-3.79029 2.32544,0 4.74243,0.56763 2.4353,0.54932 5.23681,1.88599 v 4.30298 h -0.32959 q -0.56762,-0.43946 -1.64794,-1.15357 -1.08033,-0.71411 -2.12403,-1.19018 -1.26343,-0.56763 -2.87475,-0.93384 -1.59302,-0.38452 -3.62549,-0.38452 -4.57764,0 -7.25098,2.94799 -2.65503,2.92969 -2.65503,7.94678 0,5.29175 2.7832,8.23975 2.78321,2.92969 7.58057,2.92969 1.75781,0 3.49732,-0.34791 1.75781,-0.3479 3.07617,-0.89721 v -6.68335 h -7.30591 v -3.18604 h 10.89477 z"
         style="stroke-width:0.9375"
         id="path328" />
      <path
         inkscape:connector-curvature="0"
         d="m 576.08789,-674.47626 h -17.96265 v -27.2644 h 17.96265 v 3.22265 h -14.33716 v 7.47071 h 14.33716 v 3.22265 h -14.33716 v 10.12574 h 14.33716 z"
         style="stroke-width:0.9375"
         id="path330" />
      <path
         inkscape:connector-curvature="0"
         d="m 615.36401,-698.60956 q 1.66626,1.83106 2.54517,4.48609 0.89722,2.65503 0.89722,6.02417 0,3.36914 -0.91553,6.04248 -0.89722,2.65503 -2.52686,4.43115 -1.68457,1.84936 -3.9917,2.7832 -2.28881,0.93384 -5.23681,0.93384 -2.87476,0 -5.23682,-0.95215 -2.34375,-0.95215 -3.9917,-2.76489 -1.64795,-1.81275 -2.54516,-4.44946 -0.87891,-2.63672 -0.87891,-6.02417 0,-3.33252 0.87891,-5.96924 0.8789,-2.65503 2.56347,-4.54102 1.61133,-1.79443 3.9917,-2.74658 2.39868,-0.95215 5.21851,-0.95215 2.92969,0 5.25512,0.97046 2.34375,0.95215 3.97339,2.72827 z m -0.32959,10.51026 q 0,-5.31006 -2.38037,-8.18482 -2.38037,-2.89307 -6.50024,-2.89307 -4.1565,0 -6.53687,2.89307 -2.36206,2.87476 -2.36206,8.18482 0,5.36499 2.41699,8.22143 2.417,2.83814 6.48194,2.83814 4.06494,0 6.46362,-2.83814 2.41699,-2.85644 2.41699,-8.22143 z"
         style="stroke-width:0.9375"
         id="path332" />
      <path
         inkscape:connector-curvature="0"
         d="M 641.96924,-698.51801 H 628.1814 v 7.69043 h 11.84692 v 3.22266 H 628.1814 v 13.12866 h -3.62549 v -27.2644 h 17.41333 z"
         style="stroke-width:0.9375"
         id="path334" />
      <path
         inkscape:connector-curvature="0"
         d="m 678.71851,-698.51801 h -9.74122 v 24.04175 h -3.62548 v -24.04175 h -9.74121 v -3.22265 h 23.10791 z"
         style="stroke-width:0.9375"
         id="path336" />
      <path
         inkscape:connector-curvature="0"
         d="m 700.37988,-674.47626 h -17.96264 v -27.2644 h 17.96264 v 3.22265 h -14.33716 v 7.47071 h 14.33716 v 3.22265 h -14.33716 v 10.12574 h 14.33716 z"
         style="stroke-width:0.9375"
         id="path338" />
      <path
         inkscape:connector-curvature="0"
         d="m 725.59351,-698.51801 h -9.74122 v 24.04175 h -3.62548 v -24.04175 h -9.74121 v -3.22265 h 23.10791 z"
         style="stroke-width:0.9375"
         id="path340" />
      <path
         inkscape:connector-curvature="0"
         d="m 751.85083,-674.47626 h -4.70581 l -9.11865,-10.83984 h -5.10865 v 10.83984 h -3.62548 v -27.2644 h 7.63549 q 2.47193,0 4.11988,0.32959 1.64795,0.31128 2.96631,1.13525 1.48315,0.93384 2.30712,2.36206 0.84229,1.40991 0.84229,3.58887 0,2.948 -1.48315,4.94385 -1.48316,1.97754 -4.08326,2.98462 z m -8.47778,-19.59228 q 0,-1.17188 -0.42115,-2.06909 -0.40283,-0.91553 -1.35498,-1.53809 -0.78735,-0.53101 -1.86767,-0.73242 -1.08032,-0.21973 -2.54517,-0.21973 h -4.26636 v 10.29053 h 3.66211 q 1.7212,0 3.00293,-0.29297 1.28174,-0.31128 2.17896,-1.13525 0.82397,-0.76905 1.20849,-1.75782 0.40284,-1.00708 0.40284,-2.54516 z"
         style="stroke-width:0.9375"
         id="path342" />
      <path
         inkscape:connector-curvature="0"
         d="m 775.69116,-698.60956 q 1.66626,1.83106 2.54517,4.48609 0.89721,2.65503 0.89721,6.02417 0,3.36914 -0.91552,6.04248 -0.89722,2.65503 -2.52686,4.43115 -1.68457,1.84936 -3.9917,2.7832 -2.28882,0.93384 -5.23681,0.93384 -2.87476,0 -5.23682,-0.95215 -2.34375,-0.95215 -3.9917,-2.76489 -1.64795,-1.81275 -2.54517,-4.44946 -0.8789,-2.63672 -0.8789,-6.02417 0,-3.33252 0.8789,-5.96924 0.87891,-2.65503 2.56348,-4.54102 1.61133,-1.79443 3.9917,-2.74658 2.39868,-0.95215 5.21851,-0.95215 2.92968,0 5.25512,0.97046 2.34375,0.95215 3.97339,2.72827 z m -0.32959,10.51026 q 0,-5.31006 -2.38037,-8.18482 -2.38037,-2.89307 -6.50024,-2.89307 -4.1565,0 -6.53687,2.89307 -2.36206,2.87476 -2.36206,8.18482 0,5.36499 2.41699,8.22143 2.417,2.83814 6.48194,2.83814 4.06494,0 6.46362,-2.83814 2.41699,-2.85644 2.41699,-8.22143 z"
         style="stroke-width:0.9375"
         id="path344" />
      <path
         inkscape:connector-curvature="0"
         d="m 805.94019,-676.4538 q -1.00708,0.43946 -1.83106,0.82398 -0.80566,0.38452 -2.12402,0.80566 -1.11695,0.3479 -2.43531,0.58594 -1.30004,0.25635 -2.87475,0.25635 -2.96631,0 -5.40161,-0.82398 -2.41699,-0.84228 -4.21143,-2.61841 -1.75781,-1.7395 -2.74658,-4.41284 -0.98877,-2.69165 -0.98877,-6.24389 0,-3.36914 0.95215,-6.02417 0.95215,-2.65503 2.74658,-4.48609 1.7395,-1.77612 4.19312,-2.70996 2.47192,-0.93384 5.47485,-0.93384 2.19726,0 4.37622,0.53101 2.19727,0.53101 4.87061,1.86768 v 4.30297 h -0.27466 q -2.2522,-1.88598 -4.46778,-2.74658 -2.21557,-0.86059 -4.74243,-0.86059 -2.06909,0 -3.73535,0.67749 -1.64795,0.65918 -2.948,2.06909 -1.26343,1.37329 -1.97754,3.479 -0.6958,2.0874 -0.6958,4.83399 0,2.87475 0.76905,4.94384 0.78735,2.0691 2.01416,3.36914 1.28173,1.35499 2.98462,2.01416 1.72119,0.64087 3.62548,0.64087 2.61841,0 4.90723,-0.89721 2.28882,-0.89722 4.28467,-2.69165 h 0.25635 z"
         style="stroke-width:0.9375"
         id="path346" />
      <path
         inkscape:connector-curvature="0"
         d="m 831.42847,-698.60956 q 1.66626,1.83106 2.54516,4.48609 0.89722,2.65503 0.89722,6.02417 0,3.36914 -0.91553,6.04248 -0.89721,2.65503 -2.52685,4.43115 -1.68457,1.84936 -3.9917,2.7832 -2.28882,0.93384 -5.23682,0.93384 -2.87475,0 -5.23682,-0.95215 -2.34375,-0.95215 -3.99169,-2.76489 -1.64795,-1.81275 -2.54517,-4.44946 -0.87891,-2.63672 -0.87891,-6.02417 0,-3.33252 0.87891,-5.96924 0.87891,-2.65503 2.56348,-4.54102 1.61132,-1.79443 3.9917,-2.74658 2.39868,-0.95215 5.2185,-0.95215 2.92969,0 5.25513,0.97046 2.34375,0.95215 3.97339,2.72827 z m -0.32959,10.51026 q 0,-5.31006 -2.38037,-8.18482 -2.38038,-2.89307 -6.50025,-2.89307 -4.15649,0 -6.53686,2.89307 -2.36206,2.87476 -2.36206,8.18482 0,5.36499 2.41699,8.22143 2.41699,2.83814 6.48193,2.83814 4.06494,0 6.46362,-2.83814 2.417,-2.85644 2.417,-8.22143 z"
         style="stroke-width:0.9375"
         id="path348" />
      <path
         inkscape:connector-curvature="0"
         d="m 861.42114,-674.47626 h -4.48608 l -12.92725,-24.38965 v 24.38965 h -3.38745 v -27.2644 h 5.62134 l 11.79199,22.26562 v -22.26562 h 3.38745 z"
         style="stroke-width:0.9375"
         id="path350" />
    </g>
    <g
       transform="translate(0,-63.75)"
       aria-label="INSERT SIDE-BY-SIDE IMAGES OF SINGLE JOINT AND SLEEVE"
       id="text355"
       style="font-style:normal;font-weight:normal;font-size:37.5px;line-height:1.25;font-family:sans-serif;fill:#000000;fill-opacity:1;stroke:none;stroke-width:0.9375">
      <path
         inkscape:connector-curvature="0"
         d="m 863.87555,12.663435 h -10.7666 V 9.8802319 h 3.57055 V -11.817766 h -3.57055 v -2.783203 h 10.7666 v 2.783203 h -3.57056 V 9.8802319 h 3.57056 z"
         style="stroke-width:0.9375"
         id="path357" />
      <path
         inkscape:connector-curvature="0"
         d="m 890.88361,12.663435 h -4.48609 l -12.92724,-24.389648 v 24.389648 h -3.38746 v -27.264404 h 5.62134 L 887.49615,7.6646557 V -14.600969 h 3.38746 z"
         style="stroke-width:0.9375"
         id="path359" />
      <path
         inkscape:connector-curvature="0"
         d="m 917.94659,4.8814526 q 0,1.5930175 -0.75073,3.149414 -0.73242,1.5563965 -2.06909,2.6367184 -1.46484,1.171875 -3.42407,1.831055 -1.94092,0.65918 -4.6875,0.65918 -2.948,0 -5.31006,-0.549317 -2.34375,-0.549316 -4.77905,-1.629638 V 6.437849 h 0.25634 q 2.0691,1.7211915 4.77906,2.6550293 2.70996,0.9338377 5.09033,0.9338377 3.36914,0 5.23682,-1.2634275 1.88598,-1.2634277 1.88598,-3.3691406 0,-1.8127442 -0.89722,-2.6733399 -0.8789,-0.8605957 -2.69165,-1.3366699 -1.37329,-0.3662109 -2.98461,-0.60424804 -1.59302,-0.23803711 -3.38746,-0.60424805 -3.62548,-0.76904297 -5.3833,-2.61840821 -1.7395,-1.8676758 -1.7395,-4.8522949 0,-3.4240719 2.89307,-5.6030269 2.89306,-2.197266 7.34253,-2.197266 2.87475,0 5.27343,0.549316 2.39869,0.549317 4.24805,1.354981 v 4.2846678 h -0.25635 q -1.55639,-1.3183598 -4.10156,-2.1789548 -2.52685,-0.878907 -5.18188,-0.878907 -2.91138,0 -4.6875,1.208497 -1.75782,1.2084956 -1.75782,3.1127925 0,1.7028809 0.87891,2.6733398 0.87891,0.970459 3.09448,1.4831543 1.17188,0.2563477 3.33252,0.6225586 2.16065,0.366211 3.66211,0.7507325 3.03955,0.805664 4.57764,2.43530269 1.53808,1.62963871 1.53808,4.55932621 z"
         style="stroke-width:0.9375"
         id="path361" />
      <path
         inkscape:connector-curvature="0"
         d="m 941.73199,12.663435 h -17.96264 v -27.264404 h 17.96264 v 3.222656 h -14.33715 v 7.4707031 h 14.33715 v 3.22265621 H 927.39484 V 9.4407787 h 14.33715 z"
         style="stroke-width:0.9375"
         id="path363" />
      <path
         inkscape:connector-curvature="0"
         d="M 970.05841,12.663435 H 965.3526 L 956.23395,1.8235912 h -5.10864 V 12.663435 h -3.62549 v -27.264404 h 7.63549 q 2.47193,0 4.11988,0.32959 1.64795,0.311279 2.96631,1.135253 1.48315,0.933838 2.30713,2.362061 0.84228,1.4099121 0.84228,3.5888672 0,2.947998 -1.48315,4.9438476 -1.48316,1.97753909 -4.08326,2.98461917 z m -8.47778,-19.5922852 q 0,-1.171875 -0.42115,-2.0690918 -0.40283,-0.9155273 -1.35498,-1.538086 -0.78735,-0.531006 -1.86767,-0.732422 -1.08032,-0.219726 -2.54517,-0.219726 h -4.26635 v 10.290527 h 3.6621 q 1.7212,0 3.00293,-0.2929688 1.28174,-0.3112792 2.17896,-1.1352539 0.82397,-0.7690429 1.2085,-1.7578125 0.40283,-1.00708 0.40283,-2.545166 z"
         style="stroke-width:0.9375"
         id="path366" />
      <path
         inkscape:connector-curvature="0"
         d="m 993.01984,-11.378313 h -9.74121 v 24.041748 h -3.62549 v -24.041748 h -9.74121 v -3.222656 h 23.10791 z"
         style="stroke-width:0.9375"
         id="path368" />
      <path
         inkscape:connector-curvature="0"
         d="m 1029.7142,4.8814526 q 0,1.5930175 -0.7508,3.149414 -0.7324,1.5563965 -2.0691,2.6367184 -1.4648,1.171875 -3.424,1.831055 -1.9409,0.65918 -4.6875,0.65918 -2.948,0 -5.3101,-0.549317 -2.3437,-0.549316 -4.779,-1.629638 V 6.437849 h 0.2563 q 2.0691,1.7211915 4.7791,2.6550293 2.7099,0.9338377 5.0903,0.9338377 3.3691,0 5.2368,-1.2634275 1.886,-1.2634277 1.886,-3.3691406 0,-1.8127442 -0.8972,-2.6733399 -0.8789,-0.8605957 -2.6917,-1.3366699 -1.3733,-0.3662109 -2.9846,-0.60424804 -1.593,-0.23803711 -3.3874,-0.60424805 -3.6255,-0.76904297 -5.3833,-2.61840821 -1.7395,-1.8676758 -1.7395,-4.8522949 0,-3.4240719 2.893,-5.6030269 2.8931,-2.197266 7.3426,-2.197266 2.8747,0 5.2734,0.549316 2.3987,0.549317 4.248,1.354981 v 4.2846678 h -0.2563 q -1.5564,-1.3183598 -4.1016,-2.1789548 -2.5268,-0.878907 -5.1819,-0.878907 -2.9113,0 -4.6875,1.208497 -1.7578,1.2084956 -1.7578,3.1127925 0,1.7028809 0.8789,2.6733398 0.8789,0.970459 3.0945,1.4831543 1.1719,0.2563477 3.3325,0.6225586 2.1607,0.366211 3.6621,0.7507325 3.0396,0.805664 4.5777,2.43530269 1.5381,1.62963871 1.5381,4.55932621 z"
         style="stroke-width:0.9375"
         id="path370" />
      <path
         inkscape:connector-curvature="0"
         d="m 1045.15,12.663435 h -10.7666 V 9.8802319 h 3.5705 V -11.817766 h -3.5705 v -2.783203 h 10.7666 v 2.783203 h -3.5706 V 9.8802319 h 3.5706 z"
         style="stroke-width:0.9375"
         id="path372" />
      <path
         inkscape:connector-curvature="0"
         d="m 1074.3919,-0.94130135 q 0,3.71704105 -1.6296,6.73828125 -1.6114,3.0212402 -4.303,4.6875001 -1.8677,1.153564 -4.1748,1.66626 -2.2888,0.512695 -6.0425,0.512695 h -6.8848 v -27.264404 h 6.8116 q 3.9917,0 6.3354,0.585937 2.3621,0.567627 3.9917,1.574707 2.7832,1.739502 4.3396,4.6325686 1.5564,2.8930664 1.5564,6.86645505 z m -3.7903,-0.0549316 q 0,-3.20434575 -1.1169,-5.40161135 -1.117,-2.1972656 -3.3325,-3.4606934 -1.6114,-0.9155273 -3.4241,-1.2634273 -1.8128,-0.366211 -4.3396,-0.366211 h -3.4058 V 9.550642 h 3.4058 q 2.6184,0 4.5593,-0.3845215 1.9592,-0.3845215 3.5889,-1.4282226 2.0325,-1.3000489 3.0395,-3.4240723 1.0254,-2.1240234 1.0254,-5.31005855 z"
         style="stroke-width:0.9375"
         id="path374" />
      <path
         inkscape:connector-curvature="0"
         d="m 1098.2505,12.663435 h -17.9626 v -27.264404 h 17.9626 v 3.222656 h -14.3371 v 7.4707031 h 14.3371 v 3.22265621 h -14.3371 V 9.4407787 h 14.3371 z"
         style="stroke-width:0.9375"
         id="path376" />
      <path
         inkscape:connector-curvature="0"
         d="m 1114.5836,2.3912182 h -11.4258 v -3.314209 h 11.4258 z"
         style="stroke-width:0.9375"
         id="path378" />
      <path
         inkscape:connector-curvature="0"
         d="m 1141.6465,4.2772045 q 0,2.0324707 -0.769,3.5888672 -0.769,1.5563965 -2.0691,2.5634763 -1.5381,1.208496 -3.3874,1.721192 -1.8311,0.512695 -4.6692,0.512695 h -9.668 v -27.264404 h 8.075 q 2.9846,0 4.4677,0.219726 1.4832,0.219727 2.8382,0.915528 1.5014,0.787353 2.1789,2.03247 0.6775,1.226807 0.6775,2.9479983 0,1.940918 -0.9888,3.314209 -0.9887,1.3549805 -2.6367,2.1789551 v 0.1464844 q 2.7649,0.5676269 4.3579,2.43530271 1.593,1.84936519 1.593,4.68749999 z m -6.0974,-12.2863769 q 0,-0.9887696 -0.3296,-1.6662598 -0.3295,-0.6774898 -1.062,-1.0986328 -0.8606,-0.494385 -2.0874,-0.604248 -1.2268,-0.128174 -3.0395,-0.128174 h -4.3213 v 7.8735353 h 4.6875 q 1.7029,0 2.71,-0.164795 1.007,-0.1831054 1.8676,-0.7324218 0.8606,-0.5493164 1.2085,-1.4099121 0.3662,-0.8789063 0.3662,-2.0690918 z m 2.3255,12.4328613 q 0,-1.6479492 -0.4944,-2.6184082 -0.4944,-0.970459 -1.7944,-1.64794923 -0.879,-0.45776368 -2.1424,-0.5859375 -1.2451,-0.14648438 -3.0395,-0.14648438 h -5.6946 V 9.5689526 h 4.7974 q 2.3803,0 3.9001,-0.2380371 1.5198,-0.2563477 2.4902,-0.9155274 1.0254,-0.7141113 1.5015,-1.6296387 0.4761,-0.9155273 0.4761,-2.3620605 z"
         style="stroke-width:0.9375"
         id="path380" />
      <path
         inkscape:connector-curvature="0"
         d="m 1166.0911,-14.600969 -9.5947,15.30761687 V 12.663435 h -3.6255 V 1.0911694 l -9.6313,-15.6921384 h 4.01 l 7.4524,12.1948239 7.5256,-12.1948239 z"
         style="stroke-width:0.9375"
         id="path382" />
      <path
         inkscape:connector-curvature="0"
         d="m 1180.4283,2.3912182 h -11.4258 v -3.314209 h 11.4258 z"
         style="stroke-width:0.9375"
         id="path384" />
      <path
         inkscape:connector-curvature="0"
         d="m 1206.7405,4.8814526 q 0,1.5930175 -0.7507,3.149414 -0.7324,1.5563965 -2.0691,2.6367184 -1.4648,1.171875 -3.4241,1.831055 -1.9409,0.65918 -4.6875,0.65918 -2.948,0 -5.31,-0.549317 -2.3438,-0.549316 -4.7791,-1.629638 V 6.437849 h 0.2564 q 2.0691,1.7211915 4.779,2.6550293 2.71,0.9338377 5.0904,0.9338377 3.3691,0 5.2368,-1.2634275 1.886,-1.2634277 1.886,-3.3691406 0,-1.8127442 -0.8972,-2.6733399 -0.879,-0.8605957 -2.6917,-1.3366699 -1.3733,-0.3662109 -2.9846,-0.60424804 -1.593,-0.23803711 -3.3875,-0.60424805 -3.6255,-0.76904297 -5.3833,-2.61840821 -1.7395,-1.8676758 -1.7395,-4.8522949 0,-3.4240719 2.8931,-5.6030269 2.8931,-2.197266 7.3425,-2.197266 2.8748,0 5.2735,0.549316 2.3986,0.549317 4.248,1.354981 v 4.2846678 h -0.2563 q -1.5564,-1.3183598 -4.1016,-2.1789548 -2.5269,-0.878907 -5.1819,-0.878907 -2.9114,0 -4.6875,1.208497 -1.7578,1.2084956 -1.7578,3.1127925 0,1.7028809 0.8789,2.6733398 0.8789,0.970459 3.0945,1.4831543 1.1719,0.2563477 3.3325,0.6225586 2.1607,0.366211 3.6621,0.7507325 3.0396,0.805664 4.5777,2.43530269 1.538,1.62963871 1.538,4.55932621 z"
         style="stroke-width:0.9375"
         id="path386" />
      <path
         inkscape:connector-curvature="0"
         d="m 1222.1763,12.663435 h -10.7666 V 9.8802319 h 3.5706 V -11.817766 h -3.5706 v -2.783203 h 10.7666 v 2.783203 h -3.5705 V 9.8802319 h 3.5705 z"
         style="stroke-width:0.9375"
         id="path388" />
      <path
         inkscape:connector-curvature="0"
         d="m 1251.4183,-0.94130135 q 0,3.71704105 -1.6297,6.73828125 -1.6113,3.0212402 -4.3029,4.6875001 -1.8677,1.153564 -4.1748,1.66626 -2.2889,0.512695 -6.0425,0.512695 h -6.8848 v -27.264404 h 6.8115 q 3.9917,0 6.3355,0.585937 2.362,0.567627 3.9917,1.574707 2.7832,1.739502 4.3396,4.6325686 1.5564,2.8930664 1.5564,6.86645505 z m -3.7903,-0.0549316 q 0,-3.20434575 -1.117,-5.40161135 -1.1169,-2.1972656 -3.3325,-3.4606934 -1.6113,-0.9155273 -3.424,-1.2634273 -1.8128,-0.366211 -4.3396,-0.366211 h -3.4058 V 9.550642 h 3.4058 q 2.6184,0 4.5593,-0.3845215 1.9592,-0.3845215 3.5888,-1.4282226 2.0325,-1.3000489 3.0396,-3.4240723 1.0254,-2.1240234 1.0254,-5.31005855 z"
         style="stroke-width:0.9375"
         id="path390" />
      <path
         inkscape:connector-curvature="0"
         d="m 1275.2769,12.663435 h -17.9626 v -27.264404 h 17.9626 v 3.222656 h -14.3371 v 7.4707031 h 14.3371 v 3.22265621 h -14.3371 V 9.4407787 h 14.3371 z"
         style="stroke-width:0.9375"
         id="path392" />
      <path
         inkscape:connector-curvature="0"
         d="m 1303.8414,12.663435 h -10.7666 V 9.8802319 h 3.5705 V -11.817766 h -3.5705 v -2.783203 h 10.7666 v 2.783203 h -3.5706 V 9.8802319 h 3.5706 z"
         style="stroke-width:0.9375"
         id="path394" />
      <path
         inkscape:connector-curvature="0"
         d="m 1334.3284,12.663435 h -3.6255 v -23.492432 l -7.5805,15.9851078 h -2.1607 l -7.5256,-15.9851078 v 23.492432 h -3.3875 v -27.264404 h 4.9439 l 7.2693,15.17944304 7.0312,-15.17944304 h 5.0354 z"
         style="stroke-width:0.9375"
         id="path396" />
      <path
         inkscape:connector-curvature="0"
         d="m 1363.1859,12.663435 h -3.8636 l -2.6733,-7.598877 h -11.792 l -2.6733,7.598877 h -3.6805 l 9.9244,-27.264404 h 4.8339 z m -7.6539,-10.7116699 -4.779,-13.3850101 -4.7974,13.3850101 z"
         style="stroke-width:0.9375"
         id="path398" />
      <path
         inkscape:connector-curvature="0"
         d="m 1390.0657,10.649275 q -2.2339,1.02539 -4.8889,1.794433 -2.6367,0.750733 -5.1086,0.750733 -3.1861,0 -5.8411,-0.878906 -2.655,-0.878907 -4.5227,-2.6367192 -1.886,-1.776123 -2.9114,-4.4311523 -1.0254,-2.6733398 -1.0254,-6.24389649 0,-6.53686521 3.8086,-10.30883801 3.8269,-3.790283 10.492,-3.790283 2.3254,0 4.7424,0.567627 2.4353,0.549316 5.2368,1.885986 v 4.3029787 h -0.3296 q -0.5676,-0.4394531 -1.6479,-1.1535644 -1.0803,-0.7141113 -2.124,-1.1901853 -1.2635,-0.567627 -2.8748,-0.933838 -1.593,-0.384522 -3.6255,-0.384522 -4.5776,0 -7.251,2.9479984 -2.655,2.9296875 -2.655,7.9467773 0,5.2917481 2.7832,8.2397461 2.7832,2.9296872 7.5806,2.9296872 1.7578,0 3.4973,-0.3479001 1.7578,-0.3479004 3.0762,-0.8972168 V 2.1348705 h -7.3059 v -3.1860351 h 10.8947 z"
         style="stroke-width:0.9375"
         id="path400" />
      <path
         inkscape:connector-curvature="0"
         d="m 1414.3638,12.663435 h -17.9626 v -27.264404 h 17.9626 v 3.222656 h -14.3371 v 7.4707031 h 14.3371 v 3.22265621 h -14.3371 V 9.4407787 h 14.3371 z"
         style="stroke-width:0.9375"
         id="path402" />
      <path
         inkscape:connector-curvature="0"
         d="m 1439.9437,4.8814526 q 0,1.5930175 -0.7508,3.149414 -0.7324,1.5563965 -2.0691,2.6367184 -1.4648,1.171875 -3.424,1.831055 -1.9409,0.65918 -4.6875,0.65918 -2.948,0 -5.3101,-0.549317 -2.3437,-0.549316 -4.779,-1.629638 V 6.437849 h 0.2563 q 2.0691,1.7211915 4.7791,2.6550293 2.7099,0.9338377 5.0903,0.9338377 3.3691,0 5.2368,-1.2634275 1.886,-1.2634277 1.886,-3.3691406 0,-1.8127442 -0.8972,-2.6733399 -0.8789,-0.8605957 -2.6917,-1.3366699 -1.3733,-0.3662109 -2.9846,-0.60424804 -1.593,-0.23803711 -3.3874,-0.60424805 -3.6255,-0.76904297 -5.3833,-2.61840821 -1.7395,-1.8676758 -1.7395,-4.8522949 0,-3.4240719 2.893,-5.6030269 2.8931,-2.197266 7.3425,-2.197266 2.8748,0 5.2735,0.549316 2.3987,0.549317 4.248,1.354981 v 4.2846678 h -0.2563 q -1.5564,-1.3183598 -4.1016,-2.1789548 -2.5268,-0.878907 -5.1819,-0.878907 -2.9113,0 -4.6875,1.208497 -1.7578,1.2084956 -1.7578,3.1127925 0,1.7028809 0.8789,2.6733398 0.8789,0.970459 3.0945,1.4831543 1.1719,0.2563477 3.3325,0.6225586 2.1607,0.366211 3.6621,0.7507325 3.0396,0.805664 4.5777,2.43530269 1.5381,1.62963871 1.5381,4.55932621 z"
         style="stroke-width:0.9375"
         id="path404" />
      <path
         inkscape:connector-curvature="0"
         d="m 1479.2747,-11.469866 q 1.6663,1.8310549 2.5452,4.4860842 0.8972,2.6550293 0.8972,6.02416991 0,3.36914059 -0.9155,6.04248049 -0.8972,2.6550293 -2.5269,4.4311523 -1.6846,1.8493651 -3.9917,2.7832031 -2.2888,0.933838 -5.2368,0.933838 -2.8748,0 -5.2368,-0.952149 -2.3438,-0.952148 -3.9917,-2.7648921 -1.648,-1.8127441 -2.5452,-4.4494629 -0.8789,-2.6367187 -0.8789,-6.02416989 0,-3.33251951 0.8789,-5.96923831 0.8789,-2.6550293 2.5635,-4.5410158 1.6113,-1.794433 3.9917,-2.746582 2.3987,-0.952148 5.2185,-0.952148 2.9297,0 5.2551,0.970459 2.3438,0.952148 3.9734,2.728271 z m -0.3296,10.51025411 q 0,-5.31005861 -2.3803,-8.18481441 -2.3804,-2.8930667 -6.5003,-2.8930667 -4.1565,0 -6.5369,2.8930667 -2.362,2.8747558 -2.362,8.18481441 0,5.36499019 2.417,8.22143559 2.417,2.8381343 6.4819,2.8381343 4.065,0 6.4636,-2.8381343 2.417,-2.8564454 2.417,-8.22143559 z"
         style="stroke-width:0.9375"
         id="path406" />
      <path
         inkscape:connector-curvature="0"
         d="m 1505.8799,-11.378313 h -13.7878 v 7.6904296 h 11.8469 v 3.22265627 h -11.8469 V 12.663435 h -3.6255 v -27.264404 h 17.4133 z"
         style="stroke-width:0.9375"
         id="path408" />
      <path
         inkscape:connector-curvature="0"
         d="m 1542.9954,4.8814526 q 0,1.5930175 -0.7507,3.149414 -0.7324,1.5563965 -2.0691,2.6367184 -1.4648,1.171875 -3.4241,1.831055 -1.9409,0.65918 -4.6875,0.65918 -2.948,0 -5.31,-0.549317 -2.3438,-0.549316 -4.7791,-1.629638 V 6.437849 h 0.2564 q 2.0691,1.7211915 4.779,2.6550293 2.71,0.9338377 5.0903,0.9338377 3.3692,0 5.2369,-1.2634275 1.8859,-1.2634277 1.8859,-3.3691406 0,-1.8127442 -0.8972,-2.6733399 -0.8789,-0.8605957 -2.6916,-1.3366699 -1.3733,-0.3662109 -2.9846,-0.60424804 -1.5931,-0.23803711 -3.3875,-0.60424805 -3.6255,-0.76904297 -5.3833,-2.61840821 -1.7395,-1.8676758 -1.7395,-4.8522949 0,-3.4240719 2.8931,-5.6030269 2.893,-2.197266 7.3425,-2.197266 2.8748,0 5.2734,0.549316 2.3987,0.549317 4.2481,1.354981 v 4.2846678 h -0.2564 q -1.5564,-1.3183598 -4.1015,-2.1789548 -2.5269,-0.878907 -5.1819,-0.878907 -2.9114,0 -4.6875,1.208497 -1.7578,1.2084956 -1.7578,3.1127925 0,1.7028809 0.8789,2.6733398 0.8789,0.970459 3.0945,1.4831543 1.1718,0.2563477 3.3325,0.6225586 2.1606,0.366211 3.6621,0.7507325 3.0396,0.805664 4.5776,2.43530269 1.5381,1.62963871 1.5381,4.55932621 z"
         style="stroke-width:0.9375"
         id="path410" />
      <path
         inkscape:connector-curvature="0"
         d="m 1558.4312,12.663435 h -10.7666 V 9.8802319 h 3.5706 V -11.817766 h -3.5706 v -2.783203 h 10.7666 v 2.783203 h -3.5705 V 9.8802319 h 3.5705 z"
         style="stroke-width:0.9375"
         id="path412" />
      <path
         inkscape:connector-curvature="0"
         d="m 1585.4393,12.663435 h -4.4861 l -12.9273,-24.389648 v 24.389648 h -3.3874 v -27.264404 h 5.6213 l 11.792,22.2656247 V -14.600969 h 3.3875 z"
         style="stroke-width:0.9375"
         id="path414" />
      <path
         inkscape:connector-curvature="0"
         d="m 1615.4319,10.649275 q -2.2338,1.02539 -4.8889,1.794433 -2.6367,0.750733 -5.1086,0.750733 -3.186,0 -5.8411,-0.878906 -2.655,-0.878907 -4.5227,-2.6367192 -1.886,-1.776123 -2.9114,-4.4311523 -1.0253,-2.6733398 -1.0253,-6.24389649 0,-6.53686521 3.8085,-10.30883801 3.8269,-3.790283 10.492,-3.790283 2.3254,0 4.7424,0.567627 2.4353,0.549316 5.2368,1.885986 v 4.3029787 h -0.3296 q -0.5676,-0.4394531 -1.6479,-1.1535644 -1.0803,-0.7141113 -2.124,-1.1901853 -1.2635,-0.567627 -2.8748,-0.933838 -1.593,-0.384522 -3.6255,-0.384522 -4.5776,0 -7.2509,2.9479984 -2.6551,2.9296875 -2.6551,7.9467773 0,5.2917481 2.7832,8.2397461 2.7832,2.9296872 7.5806,2.9296872 1.7578,0 3.4973,-0.3479001 1.7578,-0.3479004 3.0762,-0.8972168 V 2.1348705 h -7.3059 v -3.1860351 h 10.8947 z"
         style="stroke-width:0.9375"
         id="path416" />
      <path
         inkscape:connector-curvature="0"
         d="m 1639.0159,12.663435 h -17.2485 v -27.264404 h 3.6255 V 9.4407787 h 13.623 z"
         style="stroke-width:0.9375"
         id="path418" />
      <path
         inkscape:connector-curvature="0"
         d="m 1660.6041,12.663435 h -17.9627 v -27.264404 h 17.9627 v 3.222656 h -14.3372 v 7.4707031 h 14.3372 v 3.22265621 h -14.3372 V 9.4407787 h 14.3372 z"
         style="stroke-width:0.9375"
         id="path420" />
      <path
         inkscape:connector-curvature="0"
         d="m 1689.553,5.5772533 q 0,3.5888672 -2.1972,5.5297847 -2.179,1.940918 -5.8594,1.940918 -0.8789,0 -2.3438,-0.164794 -1.4648,-0.146485 -2.4536,-0.366211 V 9.1294994 h 0.2015 q 0.7507,0.2563477 1.8493,0.5310059 1.0986,0.2746582 2.2522,0.2746582 1.6846,0 2.6734,-0.3845215 1.007,-0.3845215 1.4831,-1.0986328 0.4944,-0.7324219 0.6226,-1.7944336 0.1465,-1.0620117 0.1465,-2.4536133 V -11.707903 h -5.7679 v -2.893066 h 9.3933 z"
         style="stroke-width:0.9375"
         id="path422" />
      <path
         inkscape:connector-curvature="0"
         d="m 1716.9456,-11.469866 q 1.6663,1.8310549 2.5452,4.4860842 0.8972,2.6550293 0.8972,6.02416991 0,3.36914059 -0.9155,6.04248049 -0.8972,2.6550293 -2.5269,4.4311523 -1.6846,1.8493651 -3.9917,2.7832031 -2.2888,0.933838 -5.2368,0.933838 -2.8748,0 -5.2368,-0.952149 -2.3438,-0.952148 -3.9917,-2.7648921 -1.648,-1.8127441 -2.5452,-4.4494629 -0.8789,-2.6367187 -0.8789,-6.02416989 0,-3.33251951 0.8789,-5.96923831 0.8789,-2.6550293 2.5635,-4.5410158 1.6113,-1.794433 3.9917,-2.746582 2.3987,-0.952148 5.2185,-0.952148 2.9297,0 5.2551,0.970459 2.3438,0.952148 3.9734,2.728271 z m -0.3296,10.51025411 q 0,-5.31005861 -2.3803,-8.18481441 -2.3804,-2.8930667 -6.5003,-2.8930667 -4.1565,0 -6.5369,2.8930667 -2.362,2.8747558 -2.362,8.18481441 0,5.36499019 2.417,8.22143559 2.417,2.8381343 6.4819,2.8381343 4.065,0 6.4636,-2.8381343 2.417,-2.8564454 2.417,-8.22143559 z"
         style="stroke-width:0.9375"
         id="path424" />
      <path
         inkscape:connector-curvature="0"
         d="m 1735.7505,12.663435 h -10.7666 V 9.8802319 h 3.5706 V -11.817766 h -3.5706 v -2.783203 h 10.7666 v 2.783203 H 1732.18 V 9.8802319 h 3.5705 z"
         style="stroke-width:0.9375"
         id="path426" />
      <path
         inkscape:connector-curvature="0"
         d="m 1762.7586,12.663435 h -4.4861 l -12.9272,-24.389648 v 24.389648 h -3.3875 v -27.264404 h 5.6214 l 11.792,22.2656247 V -14.600969 h 3.3874 z"
         style="stroke-width:0.9375"
         id="path428" />
      <path
         inkscape:connector-curvature="0"
         d="m 1789.4554,-11.378313 h -9.7412 v 24.041748 h -3.6255 v -24.041748 h -9.7412 v -3.222656 h 23.1079 z"
         style="stroke-width:0.9375"
         id="path430" />
      <path
         inkscape:connector-curvature="0"
         d="m 1827.8343,12.663435 h -3.8635 l -2.6734,-7.598877 h -11.792 l -2.6733,7.598877 h -3.6804 l 9.9243,-27.264404 h 4.834 z m -7.6538,-10.7116699 -4.7791,-13.3850101 -4.7973,13.3850101 z"
         style="stroke-width:0.9375"
         id="path432" />
      <path
         inkscape:connector-curvature="0"
         d="m 1852.7733,12.663435 h -4.4861 l -12.9273,-24.389648 v 24.389648 h -3.3874 v -27.264404 h 5.6213 l 11.792,22.2656247 V -14.600969 h 3.3875 z"
         style="stroke-width:0.9375"
         id="path434" />
      <path
         inkscape:connector-curvature="0"
         d="m 1883.0589,-0.94130135 q 0,3.71704105 -1.6296,6.73828125 -1.6114,3.0212402 -4.303,4.6875001 -1.8677,1.153564 -4.1748,1.66626 -2.2888,0.512695 -6.0425,0.512695 h -6.8848 v -27.264404 h 6.8116 q 3.9917,0 6.3354,0.585937 2.3621,0.567627 3.9917,1.574707 2.7832,1.739502 4.3396,4.6325686 1.5564,2.8930664 1.5564,6.86645505 z m -3.7903,-0.0549316 q 0,-3.20434575 -1.1169,-5.40161135 -1.117,-2.1972656 -3.3325,-3.4606934 -1.6114,-0.9155273 -3.4241,-1.2634273 -1.8128,-0.366211 -4.3396,-0.366211 h -3.4058 V 9.550642 h 3.4058 q 2.6184,0 4.5593,-0.3845215 1.9592,-0.3845215 3.5889,-1.4282226 2.0324,-1.3000489 3.0395,-3.4240723 1.0254,-2.1240234 1.0254,-5.31005855 z"
         style="stroke-width:0.9375"
         id="path436" />
      <path
         inkscape:connector-curvature="0"
         d="m 1921.9505,4.8814526 q 0,1.5930175 -0.7507,3.149414 -0.7325,1.5563965 -2.0691,2.6367184 -1.4649,1.171875 -3.4241,1.831055 -1.9409,0.65918 -4.6875,0.65918 -2.948,0 -5.3101,-0.549317 -2.3437,-0.549316 -4.779,-1.629638 V 6.437849 h 0.2563 q 2.0691,1.7211915 4.7791,2.6550293 2.71,0.9338377 5.0903,0.9338377 3.3692,0 5.2368,-1.2634275 1.886,-1.2634277 1.886,-3.3691406 0,-1.8127442 -0.8972,-2.6733399 -0.8789,-0.8605957 -2.6916,-1.3366699 -1.3733,-0.3662109 -2.9847,-0.60424804 -1.593,-0.23803711 -3.3874,-0.60424805 -3.6255,-0.76904297 -5.3833,-2.61840821 -1.7395,-1.8676758 -1.7395,-4.8522949 0,-3.4240719 2.8931,-5.6030269 2.893,-2.197266 7.3425,-2.197266 2.8747,0 5.2734,0.549316 2.3987,0.549317 4.2481,1.354981 v 4.2846678 h -0.2564 q -1.5564,-1.3183598 -4.1015,-2.1789548 -2.5269,-0.878907 -5.1819,-0.878907 -2.9114,0 -4.6875,1.208497 -1.7578,1.2084956 -1.7578,3.1127925 0,1.7028809 0.8789,2.6733398 0.8789,0.970459 3.0944,1.4831543 1.1719,0.2563477 3.3326,0.6225586 2.1606,0.366211 3.6621,0.7507325 3.0395,0.805664 4.5776,2.43530269 1.5381,1.62963871 1.5381,4.55932621 z"
         style="stroke-width:0.9375"
         id="path438" />
      <path
         inkscape:connector-curvature="0"
         d="m 1945.0218,12.663435 h -17.2485 v -27.264404 h 3.6254 V 9.4407787 h 13.6231 z"
         style="stroke-width:0.9375"
         id="path440" />
      <path
         inkscape:connector-curvature="0"
         d="m 1966.6099,12.663435 h -17.9626 v -27.264404 h 17.9626 v 3.222656 h -14.3371 v 7.4707031 h 14.3371 v 3.22265621 h -14.3371 V 9.4407787 h 14.3371 z"
         style="stroke-width:0.9375"
         id="path442" />
      <path
         inkscape:connector-curvature="0"
         d="m 1990.3404,12.663435 h -17.9627 v -27.264404 h 17.9627 v 3.222656 h -14.3372 v 7.4707031 h 14.3372 v 3.22265621 h -14.3372 V 9.4407787 h 14.3372 z"
         style="stroke-width:0.9375"
         id="path444" />
      <path
         inkscape:connector-curvature="0"
         d="m 2017.6048,-14.600969 -9.9243,27.264404 h -4.834 l -9.9243,-27.264404 h 3.8818 l 8.551,23.9868161 8.5511,-23.9868161 z"
         style="stroke-width:0.9375"
         id="path446" />
      <path
         inkscape:connector-curvature="0"
         d="m 2039.7056,12.663435 h -17.9626 v -27.264404 h 17.9626 v 3.222656 h -14.3371 v 7.4707031 h 14.3371 v 3.22265621 h -14.3371 V 9.4407787 h 14.3371 z"
         style="stroke-width:0.9375"
         id="path448" />
    </g>
    <text
       xml:space="preserve"
       style="font-style:normal;font-weight:normal;font-size:37.5px;line-height:1.25;font-family:sans-serif;fill:#000000;fill-opacity:1;stroke:none;stroke-width:0.9375"
       x="145.29826"
       y="633.02612"
       id="text453"><tspan
         sodipodi:role="line"
         id="tspan451"
         x="145.29826"
         y="633.02612"
         style="stroke-width:0.9375">CREATE AND INSERT GENERAL WIRING / CONTROL FLOWCHART</tspan></text>
    <text
       id="text1428"
       y="524.41895"
       x="1768.2001"
       style="font-style:normal;font-weight:normal;font-size:37.5px;line-height:1.25;font-family:sans-serif;fill:#000000;fill-opacity:1;stroke:none;stroke-width:0.9375"
       xml:space="preserve"><tspan
         style="stroke-width:0.9375"
         y="524.41895"
         x="1768.2001"
         id="tspan1426"
         sodipodi:role="line">`</tspan></text>
  </g>
</svg>
